<!-- Generated by IcoMoon.io -->
<svg version="1.1" xmlns="http://www.w3.org/2000/svg" width="24" height="24" viewBox="0 0 32 32">
<path d="M23.667 30.667h-15.333c-0 0-0.001 0-0.001 0-0.25 0-0.468-0.139-0.581-0.343l-0.002-0.003-7.667-14c-0.052-0.092-0.082-0.203-0.082-0.32s0.030-0.228 0.084-0.323l-0.002 0.003 7.667-14c0.115-0.208 0.333-0.347 0.583-0.347 0 0 0.001 0 0.001 0h15.333c0.244 0 0.468 0.133 0.584 0.347l7.667 14c0.052 0.092 0.082 0.203 0.082 0.32s-0.030 0.228-0.084 0.323l0.002-0.003-7.667 14c-0.115 0.208-0.333 0.347-0.583 0.347-0 0-0.001 0-0.001 0h0zM8.728 29.333h14.544l7.301-13.333-7.301-13.333h-14.544l-7.301 13.333 7.301 13.333z" fill="#F30"></path>
<path d="M18 25.333h-2.667c-3.312-0.004-5.996-2.688-6-6v-6.667c0.002-1.104 0.898-1.999 2.002-1.999 0.238 0 0.466 0.042 0.678 0.118l-0.014-0.004v-0.781c0.002-1.105 0.898-1.999 2.003-1.999 0.264 0 0.517 0.051 0.748 0.144l-0.013-0.005c0.232-0.848 1.010-1.473 1.93-1.473s1.697 0.625 1.929 1.473c0.218-0.088 0.47-0.14 0.735-0.14 1.105 0 2.001 0.895 2.003 1.999v6.462c0.589-0.611 1.381-1.128 2.369-1.128 2.187 0 2.298 1.235 2.298 1.481 0 0.795-0.511 1.056-0.813 1.211-0.371 0.191-0.991 0.508-1.669 2.416-1.194 3.362-2.893 4.868-5.512 4.891l-0.005 0.001zM11.333 12c-0.368 0.001-0.665 0.299-0.667 0.667v6.667c0 2.573 2.093 4.667 4.667 4.667h2.664c1.482-0.013 3.023-0.508 4.264-4.003 0.789-2.223 1.61-2.796 2.316-3.157 0.059-0.029 0.112-0.053 0.153-0.084-0.085 0.068-0.352-0.088-1.028-0.088-1.217 0-2.16 1.628-2.42 2.253-0.104 0.244-0.342 0.412-0.62 0.412-0.045 0-0.089-0.004-0.131-0.013l0.004 0.001c-0.307-0.065-0.535-0.333-0.536-0.654v-8.667c-0.001-0.368-0.299-0.665-0.666-0.667h-0c-0.368 0.001-0.665 0.299-0.667 0.666v5.334c0 0.368-0.299 0.667-0.667 0.667s-0.667-0.299-0.667-0.667v-6.667c-0.001-0.368-0.299-0.665-0.666-0.667h-0c-0.368 0.001-0.666 0.299-0.667 0.667v7.333c0 0.368-0.298 0.667-0.667 0.667s-0.667-0.298-0.667-0.667v0-6c-0.001-0.368-0.299-0.665-0.667-0.667h-0c-0.368 0.001-0.665 0.299-0.667 0.666v6.667c0 0.368-0.299 0.667-0.667 0.667s-0.667-0.299-0.667-0.667v0-4c-0.001-0.368-0.299-0.666-0.666-0.667h-0z" fill="#FFC7C7"></path>
</svg>
