<?xml version="1.0" encoding="iso-8859-1"?>
<!-- Uploaded to: SVG Repo, www.svgrepo.com, Generator: SVG Repo Mixer Tools -->
<svg fill="red" height="800px" width="800px" version="1.1" id="Layer_1" xmlns="http://www.w3.org/2000/svg" xmlns:xlink="http://www.w3.org/1999/xlink"
	 viewBox="0 0 512 512" xml:space="preserve">
<g>
	<g>
		<g>
			<path d="M437.02,74.98C388.668,26.629,324.38,0,256,0S123.332,26.629,74.98,74.98C26.628,123.334,0,187.62,0,256
				s26.628,132.666,74.98,181.02C123.332,485.371,187.62,512,256,512s132.668-26.629,181.02-74.98
				C485.372,388.666,512,324.38,512,256S485.372,123.334,437.02,74.98z M422.538,422.538C378.054,467.022,318.91,491.52,256,491.52
				s-122.054-24.498-166.538-68.982C44.978,378.054,20.48,318.909,20.48,256S44.978,133.946,89.462,89.462
				C133.946,44.978,193.09,20.48,256,20.48s122.054,24.498,166.538,68.982C467.022,133.946,491.52,193.091,491.52,256
				S467.022,378.054,422.538,422.538z"/>
			<path d="M252.799,78.933c-16.939,0-30.72,13.781-30.72,30.72v10.126c-3.204-1.136-6.651-1.755-10.24-1.755
				c-16.939,0-30.72,13.781-30.72,30.72v105.74l-12.789-15.241c-6.658-7.936-16.008-12.803-26.328-13.706
				c-10.316-0.904-20.374,2.267-28.309,8.925c-5.684,4.77-9.171,11.467-9.817,18.858c-0.647,7.391,1.623,14.592,6.393,20.277
				l7.24,8.628c20.672,24.635,36.582,51.062,47.292,78.545c7.511,19.273,20.485,35.728,37.521,47.587
				c17.445,12.145,37.938,18.563,59.265,18.563c57.264,0,103.851-46.587,103.851-103.851V181.845c0-16.939-13.781-30.72-30.72-30.72
				c-3.589,0-7.036,0.618-10.24,1.755v-7.43c0-1.531-0.345-2.979-0.948-4.283c-3.383-13.285-15.448-23.141-29.772-23.141
				c-3.589,0-7.036,0.619-10.24,1.755v-10.126C283.519,92.714,269.738,78.933,252.799,78.933z M283.519,263.424V148.745
				c0-5.646,4.594-10.24,10.24-10.24s10.24,4.594,10.24,10.24v27.015v6.085v85.504c0,5.656,4.586,10.24,10.24,10.24
				c5.654,0,10.24-4.584,10.24-10.24v-85.504c0-5.646,4.594-10.24,10.24-10.24s10.24,4.594,10.24,10.24v141.227
				c0,45.97-37.4,83.371-83.371,83.371c-34.63,0-65.13-20.846-77.704-53.108c-11.522-29.569-28.576-57.922-50.686-84.273
				l-7.24-8.628c-1.253-1.493-1.849-3.385-1.679-5.327c0.17-1.941,1.086-3.702,2.579-4.955c3.327-2.791,7.441-4.283,11.732-4.283
				c0.54,0,1.083,0.024,1.627,0.072c4.87,0.426,9.282,2.723,12.425,6.469l30.24,36.039c1.945,2.318,4.817,3.658,7.844,3.658h0.633
				c5.655,0,10.24-4.584,10.24-10.24v-133.12c0-5.646,4.594-10.24,10.24-10.24c5.646,0,10.24,4.594,10.24,10.24v109.901
				c0,5.656,4.586,10.24,10.24,10.24c5.655,0,10.24-4.584,10.24-10.24V148.745v-5.271v-33.821c0-5.646,4.594-10.24,10.24-10.24
				c5.646,0,10.24,4.594,10.24,10.24v34.905v4.186v114.679c0,5.656,4.586,10.24,10.24,10.24
				C278.934,273.664,283.519,269.08,283.519,263.424z"/>
			<path d="M256,40.96C137.427,40.96,40.96,137.426,40.96,256S137.427,471.04,256,471.04c40.566,0,80.08-11.356,114.268-32.841
				c4.789-3.01,6.231-9.331,3.221-14.119c-3.008-4.788-9.33-6.231-14.118-3.221C328.451,440.289,292.706,450.56,256,450.56
				c-107.281,0-194.56-87.28-194.56-194.56S148.719,61.44,256,61.44S450.56,148.72,450.56,256c0,26.105-5.081,51.437-15.102,75.292
				c-2.19,5.214,0.261,11.216,5.475,13.406c5.214,2.188,11.217-0.26,13.407-5.474c11.081-26.38,16.699-54.381,16.699-83.224
				C471.04,137.426,374.573,40.96,256,40.96z"/>
			<path d="M420.468,378.49c-4.356-3.604-10.812-2.991-14.417,1.366c-0.702,0.85-1.411,1.693-2.127,2.53
				c-3.674,4.299-3.168,10.762,1.13,14.437c1.93,1.65,4.295,2.457,6.649,2.457c2.891,0,5.764-1.218,7.789-3.587
				c0.788-0.922,1.569-1.851,2.343-2.786C425.438,388.549,424.827,382.093,420.468,378.49z"/>
		</g>
	</g>
</g>
</svg>