<!-- Generated by IcoMoon.io -->
<svg version="1.1" xmlns="http://www.w3.org/2000/svg" width="32" height="32" viewBox="0 0 32 32">
<path fill="#f00" d="M27.314 4.686c-3.022-3.022-7.040-4.686-11.314-4.686s-8.292 1.664-11.314 4.686c-3.022 3.022-4.686 7.040-4.686 11.314s1.664 8.292 4.686 11.314c3.022 3.022 7.040 4.686 11.314 4.686s8.292-1.664 11.314-4.686c3.022-3.022 4.686-7.040 4.686-11.314s-1.664-8.292-4.686-11.314zM26.409 26.409c-2.78 2.78-6.477 4.311-10.409 4.311s-7.628-1.531-10.409-4.311c-2.78-2.78-4.311-6.477-4.311-10.409s1.531-7.628 4.311-10.409c2.78-2.78 6.477-4.311 10.409-4.311s7.628 1.531 10.409 4.311c2.78 2.78 4.311 6.477 4.311 10.409s-1.531 7.628-4.311 10.409z"></path>
<path fill="#f00" d="M15.8 4.933c-1.059 0-1.92 0.861-1.92 1.92v0.633c-0.2-0.071-0.416-0.11-0.64-0.11-1.059 0-1.92 0.861-1.92 1.92v6.609l-0.799-0.953c-0.416-0.496-1.001-0.8-1.646-0.857s-1.273 0.142-1.769 0.558c-0.355 0.298-0.573 0.717-0.614 1.179s0.101 0.912 0.4 1.267l0.452 0.539c1.292 1.54 2.286 3.191 2.956 4.909 0.469 1.205 1.28 2.233 2.345 2.974 1.090 0.759 2.371 1.16 3.704 1.16 3.579 0 6.491-2.912 6.491-6.491v-8.826c0-1.059-0.861-1.92-1.92-1.92-0.224 0-0.44 0.039-0.64 0.11v-0.464c0-0.096-0.022-0.186-0.059-0.268-0.211-0.83-0.965-1.446-1.861-1.446-0.224 0-0.44 0.039-0.64 0.11v-0.633c0-1.059-0.861-1.92-1.92-1.92zM17.72 16.464v-7.167c0-0.353 0.287-0.64 0.64-0.64s0.64 0.287 0.64 0.64v7.413c0 0.354 0.287 0.64 0.64 0.64s0.64-0.287 0.64-0.64v-5.344c0-0.353 0.287-0.64 0.64-0.64s0.64 0.287 0.64 0.64v8.827c0 2.873-2.337 5.211-5.211 5.211-2.164 0-4.071-1.303-4.857-3.319-0.72-1.848-1.786-3.62-3.168-5.267l-0.452-0.539c-0.078-0.093-0.116-0.212-0.105-0.333s0.068-0.231 0.161-0.31c0.208-0.174 0.465-0.268 0.733-0.268 0.034 0 0.068 0.002 0.102 0.005 0.304 0.027 0.58 0.17 0.777 0.404l1.89 2.252c0.122 0.145 0.301 0.229 0.49 0.229h0.040c0.353 0 0.64-0.287 0.64-0.64v-8.32c0-0.353 0.287-0.64 0.64-0.64s0.64 0.287 0.64 0.64v6.869c0 0.354 0.287 0.64 0.64 0.64s0.64-0.287 0.64-0.64v-9.312c0-0.353 0.287-0.64 0.64-0.64s0.64 0.287 0.64 0.64v9.611c0 0.354 0.287 0.64 0.64 0.64s0.64-0.286 0.64-0.64z"></path>
<path fill="#f00" d="M16 2.56c-7.411 0-13.44 6.029-13.44 13.44s6.029 13.44 13.44 13.44c2.535 0 5.005-0.71 7.142-2.053 0.299-0.188 0.389-0.583 0.201-0.882s-0.583-0.389-0.882-0.201c-1.933 1.214-4.167 1.856-6.461 1.856-6.705 0-12.16-5.455-12.16-12.16s5.455-12.16 12.16-12.16 12.16 5.455 12.16 12.16c0 1.632-0.318 3.215-0.944 4.706-0.137 0.326 0.016 0.701 0.342 0.838s0.701-0.016 0.838-0.342c0.693-1.649 1.044-3.399 1.044-5.201 0-7.411-6.029-13.44-13.44-13.44z"></path>
<path fill="#f00" d="M26.279 23.656c-0.272-0.225-0.676-0.187-0.901 0.085-0.044 0.053-0.088 0.106-0.133 0.158-0.23 0.269-0.198 0.673 0.071 0.902 0.121 0.103 0.268 0.154 0.416 0.154 0.181 0 0.36-0.076 0.487-0.224 0.049-0.058 0.098-0.116 0.146-0.174 0.225-0.272 0.187-0.676-0.085-0.901z"></path>
</svg>
