<svg xmlns="http://www.w3.org/2000/svg" aria-hidden="true" style="position:absolute;width:0;height:0;overflow:hidden">
<defs>
    <symbol id="icon-plus" viewBox="0 0 24 24" fill="currentColor">
      <path fill-rule="evenodd"
        d="M12 3.75a.75.75 0 0 1 .75.75v6.75h6.75a.75.75 0 0 1 0 1.5h-6.75v6.75a.75.75 0 0 1-1.5 0v-6.75H4.5a.75.75 0 0 1 0-1.5h6.75V4.5a.75.75 0 0 1 .75-.75Z"
        clip-rule="evenodd"></path>
    </symbol>
    <symbol id="icon-arrow-down" viewBox="0 0 32 32">
      <path fill="none" stroke="#fafafa" style="stroke: var(--color1, #fafafa)" stroke-linejoin="miter"
        stroke-linecap="butt" stroke-miterlimit="4" stroke-width="3.2" d="M24 12l-8 8-8-8"></path>
    </symbol>
    <symbol id="icon-select" viewBox="0 0 256 256" fill="currentColor">
      <path
        d="M213.66,101.66l-80,80a8,8,0,0,1-11.32,0l-80-80A8,8,0,0,1,53.66,90.34L128,164.69l74.34-74.35a8,8,0,0,1,11.32,11.32Z">
      </path>
    </symbol>
<symbol id="icon-user" viewBox="0 0 32 32">
<path d="M23.95 20.25l-4.325-3.1c1.75-1.875 2.875-4.85 2.875-7.075 0-3.6-2.925-6.5-6.5-6.5s-6.5 2.925-6.5 6.5c0 2.2 1.125 5.175 2.875 7.050l-4.325 3.125c-1.642 1.196-2.698 3.112-2.7 5.275v2.3c0 0.325 0.275 0.6 0.6 0.6h20.1c0.325 0 0.6-0.275 0.6-0.6v-2.3c0-2.075-1.025-4.050-2.7-5.275zM16 4.75c2.925 0 5.325 2.4 5.325 5.325 0 2.1-1.2 5.050-2.925 6.625-0.050 0.025-0.1 0.075-0.15 0.125-0.675 0.575-1.45 0.95-2.25 0.95s-1.55-0.35-2.25-0.95c-0.050-0.050-0.1-0.1-0.15-0.125-1.725-1.575-2.925-4.525-2.925-6.625 0-2.925 2.4-5.325 5.325-5.325zM25.475 27.25h-18.95v-1.7c0-1.7 0.825-3.325 2.225-4.325l4.525-3.275c0.825 0.625 1.75 1 2.725 1s1.9-0.375 2.725-1l4.525 3.275c1.375 1 2.225 2.625 2.225 4.325v1.7z" fill="currentColor"></path>
</symbol>
<symbol id="icon-call" viewBox="0 0 32 32">
<path d="M14.23 10.462c0-0.522-0.203-1.013-0.572-1.382l-2.792-2.792c-0.762-0.762-2.002-0.762-2.763 0l-2.238 2.238c-1.615 1.615 3.064 7.467 6.603 11.006 3.044 3.045 7.799 6.932 10.098 6.932 0.374 0 0.683-0.102 0.908-0.328l2.238-2.238c0.353-0.354 0.571-0.842 0.571-1.382s-0.218-1.028-0.572-1.382l-2.792-2.792c-0.352-0.353-0.838-0.572-1.376-0.572-0.002 0-0.004 0-0.006 0h0c-0.002 0-0.004 0-0.006 0-0.538 0-1.024 0.219-1.376 0.572l-0.788 0.788c-0.364 0.017-1.806-0.745-3.78-2.719s-2.74-3.425-2.719-3.78l0.787-0.787c0.353-0.352 0.572-0.838 0.572-1.376 0-0.002 0-0.004 0-0.006v0zM13.066 11.252l-0.82 0.82c-1.059 1.060 2.358 4.538 2.751 4.931s3.873 3.81 4.932 2.751l0.82-0.82c0.202-0.202 0.481-0.327 0.79-0.327s0.587 0.125 0.79 0.327v0l2.792 2.792c0.202 0.202 0.327 0.481 0.327 0.79s-0.125 0.587-0.327 0.79v0l-2.238 2.238c-0.657 0.657-4.809-1.59-9.822-6.603-5.013-5.013-7.259-9.166-6.603-9.822l2.238-2.238c0.201-0.202 0.48-0.327 0.788-0.327 0.001 0 0.001 0 0.002 0h-0c0.286 0 0.572 0.109 0.79 0.327l2.792 2.792c0.202 0.201 0.327 0.479 0.327 0.786 0 0.001 0 0.002 0 0.003v-0c0 0.001 0 0.002 0 0.003 0 0.307-0.125 0.586-0.327 0.786l-0 0zM26.464 14.039c0-4.689-3.815-8.503-8.504-8.503-0.231 0-0.419 0.187-0.419 0.419s0.187 0.419 0.419 0.419v0c4.227 0 7.666 3.439 7.666 7.666 0 0.231 0.187 0.419 0.419 0.419s0.419-0.187 0.419-0.419v0z" fill="currentColor"></path>
<path d="M17.961 8.88c2.845 0 5.159 2.314 5.159 5.159 0 0.231 0.187 0.419 0.419 0.419s0.419-0.187 0.419-0.419v0c0-3.307-2.69-5.996-5.996-5.996-0.231 0-0.419 0.187-0.419 0.419s0.187 0.419 0.419 0.419v0z" fill="currentColor"></path>
<path d="M17.961 11.387c1.462 0 2.652 1.189 2.652 2.652 0 0.231 0.188 0.419 0.419 0.419s0.419-0.188 0.419-0.419v0c0-1.924-1.566-3.49-3.49-3.49-0.231 0-0.419 0.187-0.419 0.419s0.187 0.419 0.419 0.419v0z" fill="currentColor"></path>
</symbol>
<symbol id="icon-trash" viewBox="0 0 22 32">
<path d="M4.72 14.756c-0.105-0.865-1.406-0.699-1.302 0.158l1.967 16.249c0.041 0.329 0.32 0.577 0.652 0.577h13.111c0.332 0 0.61-0.248 0.651-0.577l1.967-16.249c0.103-0.857-1.198-1.022-1.302-0.157l-1.897 15.672h-2.186l0.652-7.411c0.076-0.858-1.228-0.988-1.306-0.116l-0.662 7.526h-1.817v-7.467c0-0.868-1.311-0.866-1.311 0v7.469h-1.818l-0.662-7.526c-0.076-0.871-1.383-0.745-1.307 0.114l0.652 7.411h-2.185l-1.897-15.672-0.001-0.001zM0.348 10.169l1.195 2.334c0.111 0.214 0.331 0.357 0.584 0.357 0.109 0 0.212-0.027 0.302-0.073l-0.004 0.002 17.492-8.954c0.214-0.111 0.357-0.331 0.357-0.584 0-0.109-0.027-0.211-0.073-0.302l0.002 0.004-1.195-2.333c-0.111-0.213-0.331-0.357-0.584-0.357-0.109 0-0.211 0.026-0.302 0.073l0.004-0.002-4.511 2.308-1.872-1.543c-0.112-0.094-0.258-0.15-0.418-0.15-0.109 0-0.212 0.027-0.302 0.074l0.004-0.002-5.684 2.91c-0.214 0.111-0.357 0.331-0.357 0.584 0 0.015 0 0.030 0.001 0.044l-0-0.002 0.157 2.422-4.511 2.309c-0.213 0.111-0.356 0.331-0.356 0.583 0 0.109 0.027 0.212 0.073 0.302l-0.002-0.004zM6.416 6.327l-0.092-1.426 4.917-2.517 1.103 0.908-5.927 3.034zM18.139 1.799l0.597 1.167-16.325 8.357-0.598-1.167 16.326-8.357z" fill="currentColor"></path>
<path d="M9.793 17.17h2.458c0.362 0 0.655-0.293 0.656-0.655v-3.36c-0-0.362-0.294-0.655-0.656-0.655h-2.458c-0.362 0-0.655 0.293-0.656 0.655v3.36c0 0.362 0.294 0.655 0.656 0.655v0zM10.449 13.81h1.147v2.049h-1.147v-2.049zM16.919 15.219l1.971-2.72c0.078-0.107 0.125-0.24 0.125-0.385 0-0.218-0.106-0.41-0.269-0.53l-0.002-0.001-1.99-1.442c-0.107-0.078-0.24-0.125-0.385-0.125-0.217 0-0.41 0.106-0.529 0.269l-0.001 0.002-1.971 2.721c-0.078 0.107-0.125 0.24-0.125 0.385 0 0.218 0.106 0.411 0.269 0.53l0.002 0.001 1.991 1.442c0.106 0.078 0.24 0.124 0.384 0.124 0.218 0 0.41-0.106 0.53-0.269l0.001-0.002zM16.515 11.588l0.929 0.673-1.202 1.658-0.929-0.672 1.202-1.659z" fill="currentColor"></path>
</symbol>
<symbol id="icon-flight" viewBox="0 0 32 32">
<path stroke-linejoin="round" stroke-linecap="round" stroke-miterlimit="4" stroke-width="1.9649" d="M14.933 22.267l11.067 3.733 4-24-28 16 8.667 2.933" stroke="currentColor"></path>
<path stroke-linejoin="round" stroke-linecap="round" stroke-miterlimit="4" stroke-width="1.9649" d="M14 30l-3.333-9.067 19.333-18.933-15.067 20.267-0.933 7.733zM14 30l5.067-6.267" stroke="currentColor"></path>
</symbol>
<symbol id="icon-clock" viewBox="0 0 32 32">
<path stroke-linejoin="round" stroke-linecap="round" stroke-miterlimit="10" stroke-width="1.9478" d="M25.328 6.069c-3.932-3.462-9.634-4.602-14.789-2.44-7.19 3.016-10.574 11.29-7.558 18.48s11.29 10.573 18.48 7.558c7.19-3.015 10.574-11.289 7.558-18.479-0.245-0.576-0.48-1.046-0.74-1.5l0.037 0.070" stroke="currentColor"></path>
<path stroke-linejoin="round" stroke-linecap="round" stroke-miterlimit="10" stroke-width="1.9478" d="M20.623 7.571l4.988-1.352-1.352-4.988M16 2.53v2.143M6.339 6.35l1.516 1.516M1.879 16h2.144M5.717 26.283l1.517-1.517M16 30.769v-2.144M26.283 26.283l-1.517-1.517M30.121 16h-2.144" stroke="currentColor"></path>
<path stroke-linejoin="round" stroke-linecap="round" stroke-miterlimit="10" stroke-width="1.9478" d="M16 18.616c1.086 0 1.967-0.881 1.967-1.967s-0.881-1.967-1.967-1.967v0c-1.086 0-1.967 0.881-1.967 1.967s0.881 1.967 1.967 1.967v0z" fill="currentColor"></path>
<path stroke-linejoin="round" stroke-linecap="round" stroke-miterlimit="10" stroke-width="1.9478" d="M16 14.686v-6.82M14.034 16.652h-4.099" stroke="currentColor"></path>
</symbol>
</defs>
</svg>
